<svg width="40" height="40" viewBox="0 0 40 40" fill="none" xmlns="http://www.w3.org/2000/svg">
<g clip-path="url(#clip0_2_6)">
<path d="M26.126 4.458C26.126 3.114 26.952 2.442 28.604 2.442C30.284 2.442 31.124 3.114 31.124 4.458V34.236C31.124 35.58 30.284 36.252 28.604 36.252C26.952 36.252 26.126 35.58 26.126 34.236V4.458ZM13.358 34.236C13.358 35.58 12.518 36.252 10.838 36.252C9.186 36.252 8.36 35.58 8.36 34.236V4.458C8.36 3.114 9.186 2.442 10.838 2.442C12.518 2.442 13.358 3.114 13.358 4.458V34.236ZM23.186 18.654C23.186 19.634 22.85 20.46 22.178 21.132C21.506 21.804 20.68 22.14 19.7 22.14C18.748 22.14 17.936 21.804 17.264 21.132C16.592 20.46 16.256 19.634 16.256 18.654C16.256 17.674 16.592 16.848 17.264 16.176C17.936 15.504 18.748 15.168 19.7 15.168C20.68 15.168 21.506 15.504 22.178 16.176C22.85 16.848 23.186 17.674 23.186 18.654Z" fill="#FF8800"/>
</g>
<defs>
<clipPath id="clip0_2_6">
<rect width="40" height="40" fill="white"/>
</clipPath>
</defs>
</svg>
